<?xml version="1.0" encoding="UTF-8" standalone="no"?><!DOCTYPE svg PUBLIC "-//W3C//DTD SVG 1.1//EN" "http://www.w3.org/Graphics/SVG/1.1/DTD/svg11.dtd"><svg width="100%" height="100%" viewBox="0 0 2134 2134" version="1.1" xmlns="http://www.w3.org/2000/svg" xmlns:xlink="http://www.w3.org/1999/xlink" xml:space="preserve" xmlns:serif="http://www.serif.com/" style="fill-rule:evenodd;clip-rule:evenodd;stroke-linecap:round;stroke-linejoin:round;stroke-miterlimit:1.5;"><rect x="0" y="0" width="2133.33" height="2133.33" style="stroke:#fff;stroke-width:2.08px;"/><g transform="matrix(170.628,0,0,170.628,659.087,222.55)"></g><text x="454.333px" y="222.55px" style="font-family:'NewFont-Regular', 'New Font';font-size:170.628px;fill:#f55;stroke:#f55;stroke-width:2.08px;stroke-linecap:butt;stroke-miterlimit:2;">yt</text><g transform="matrix(170.628,0,0,170.628,1366.29,246.174)"></g><text x="752.029px" y="246.174px" style="font-family:'NewFont-Regular', 'New Font';font-size:170.628px;fill:#bd7dff;stroke:#bd7dff;stroke-width:2.08px;stroke-linecap:butt;stroke-miterlimit:2;">twitch</text><g transform="matrix(6.12323e-17,-1,1,6.12323e-17,-1922.7,1874.07)"><g transform="matrix(170.628,0,0,170.628,1247.18,2085.49)"></g><text x="325.794px" y="2085.49px" style="font-family:'NewFont-Regular', 'New Font';font-size:170.628px;fill:#fff;">cockatiel</text></g><g transform="matrix(170.628,0,0,170.628,1745.39,246.174)"></g><text x="1438.26px" y="246.174px" style="font-family:'NewFont-Regular', 'New Font';font-size:170.628px;fill:#7dfcff;stroke:#7dfcff;stroke-width:2.08px;stroke-linecap:butt;stroke-miterlimit:2;">etc</text><ellipse cx="1098.72" cy="420.512" rx="899.691" ry="94.213" style="stroke:#fff;stroke-width:16.67px;"/><path d="M94.795,604.694l-0,-184.182l104.231,0" style="stroke:#fff;stroke-width:16.67px;"/><path d="M1050.18,302.787l32.975,0l-0,329.746l30.619,-0l-47.106,47.106l-47.107,-47.106l30.619,-0l0,-329.746Z" style="fill:#bd7dff;"/><path d="M1573.66,302.787l32.975,0l-0,329.746l30.619,-0l-47.107,47.106l-47.106,-47.106l30.619,-0l0,-329.746Z" style="fill:#7dfcff;"/><path d="M531.777,302.787l32.974,0l0,329.746l30.619,-0l-47.106,47.106l-47.107,-47.106l30.62,-0l-0,-329.746Z" style="fill:#f55;"/><path d="M1050.18,1231.34l32.975,-0l-0,83.603l30.619,0l-47.106,47.107l-47.107,-47.107l30.619,0l0,-83.603Z" style="fill:#fff;"/><path d="M1050.18,1207.98l32.975,-0l-0,106.956l30.619,0l-47.106,47.107l-47.107,-47.107l30.619,0l0,-106.956Z" style="fill:#fff;"/><path d="M1050.18,1540.03l32.975,-0l-0,83.603l30.619,0l-47.106,47.107l-47.107,-47.107l30.619,0l0,-83.603Z" style="fill:#fff;"/><path d="M1050.18,1827.16l32.975,0l-0,83.604l30.619,-0l-47.106,47.106l-47.107,-47.106l30.619,-0l0,-83.604Z" style="fill:#fff;"/><path d="M1998.41,420.512c-0,51.998 -403.139,94.213 -899.692,94.213c-496.553,0 -899.691,-42.215 -899.691,-94.213" style="fill:none;stroke:#fff;stroke-width:16.67px;"/><rect x="323.341" y="738.799" width="449.846" height="449.846" style="fill:#f55;"/><rect x="841.744" y="738.799" width="449.846" height="449.846" style="fill:#bd7dff;"/><rect x="1365.23" y="738.799" width="449.846" height="449.846" style="fill:#7dfcff;"/><rect x="323.341" y="1716.58" width="1491.73" height="100.154" style="fill:url(#_Linear1);"/><g transform="matrix(50,0,0,50,1727.54,1780.33)"></g><text x="407.539px" y="1780.33px" style="font-family:'NewFont-Regular', 'New Font';font-size:50px;">thing_stuff.process...(unprocessed_queue[i])</text><g transform="matrix(62.5,0,0,62.5,915.655,666.517)"></g><text x="615.655px" y="666.517px" style="font-family:'NewFont-Regular', 'New Font';font-size:62.5px;fill:#515151;">yt-msg{}</text><g transform="matrix(83.3333,0,0,83.3333,1548.12,1493.21)"></g><text x="598.125px" y="1493.21px" style="font-family:'NewFont-Regular', 'New Font';font-size:83.333px;fill:#fff;">unprocessed_queue[]</text><g transform="matrix(62.5,0,0,62.5,1800.05,1621.36)"></g><text x="1162.55px" y="1621.36px" style="font-family:'NewFont-Regular', 'New Font';font-size:62.5px;fill:#515151;">unprocessed_msg{}</text><g transform="matrix(62.5,0,0,62.5,1725.05,1913.33)"></g><text x="1162.55px" y="1913.33px" style="font-family:'NewFont-Regular', 'New Font';font-size:62.5px;fill:#515151;">processed_msg{}</text><g transform="matrix(62.5,0,0,62.5,1834.22,1319.2)"></g><text x="1159.28px" y="1319.2px" style="font-family:'NewFont-Regular', 'New Font';font-size:62.5px;fill:#515151;">message &quot;snapshot&quot;</text><g transform="matrix(83.3333,0,0,83.3333,1448.12,2024.54)"></g><text x="598.125px" y="2024.54px" style="font-family:'NewFont-Regular', 'New Font';font-size:83.333px;fill:#fff;">processed_queue[]</text><g transform="matrix(50,0,0,50,743.624,976.872)"></g><text x="353.624px" y="976.872px" style="font-family:'NewFont-Regular', 'New Font';font-size:50px;">youtube_stuff</text><g transform="matrix(50,0,0,50,1244.43,979.064)"></g><text x="884.433px" y="979.064px" style="font-family:'NewFont-Regular', 'New Font';font-size:50px;">twitch_stuff</text><g transform="matrix(50,0,0,50,1752.92,979.064)"></g><text x="1422.92px" y="979.064px" style="font-family:'NewFont-Regular', 'New Font';font-size:50px;">other_stuff</text><g transform="matrix(62.5,0,0,62.5,1388.8,666.517)"></g><text x="1126.3px" y="666.517px" style="font-family:'NewFont-Regular', 'New Font';font-size:62.5px;fill:#515151;">t-msg{}</text><g transform="matrix(62.5,0,0,62.5,2065.04,666.517)"></g><text x="1652.54px" y="666.517px" style="font-family:'NewFont-Regular', 'New Font';font-size:62.5px;fill:#515151;">other-msg{}</text><path d="M531.623,1238.17l1075.17,0l-0,33.281l-1075.17,0l0,-33.281Z" style="fill:#fff;"/><rect x="531.623" y="1207.98" width="33.281" height="46.83" style="fill:#fff;"/><rect x="1573.51" y="1207.98" width="33.281" height="46.83" style="fill:#fff;"/><defs><linearGradient id="_Linear1" x1="0" y1="0" x2="1" y2="0" gradientUnits="userSpaceOnUse" gradientTransform="matrix(1778.82,0,0,1130.31,195.613,1766.65)"><stop offset="0" style="stop-color:#f55;stop-opacity:1"/><stop offset="0.5" style="stop-color:#bd7dff;stop-opacity:1"/><stop offset="1" style="stop-color:#7dfcff;stop-opacity:1"/></linearGradient></defs></svg>